<mxfile host="app.diagrams.net" modified="2022-05-04T23:45:43.693Z" agent="5.0 (Windows NT 10.0; Win64; x64) AppleWebKit/537.36 (KHTML, like Gecko) Chrome/101.0.4951.54 Safari/537.36" etag="O-n0kcyV5XYYxRZaL2-P" version="17.5.0" type="github">
  <diagram id="R2lEEEUBdFMjLlhIrx00" name="Page-1">
    <mxGraphModel dx="1422" dy="762" grid="1" gridSize="10" guides="1" tooltips="1" connect="1" arrows="1" fold="1" page="1" pageScale="1" pageWidth="850" pageHeight="1100" math="0" shadow="0" extFonts="Permanent Marker^https://fonts.googleapis.com/css?family=Permanent+Marker">
      <root>
        <mxCell id="0" />
        <mxCell id="1" parent="0" />
        <mxCell id="H_OnY3b50F5zeGFzQMEf-2" value="Vouch" style="rounded=0;whiteSpace=wrap;html=1;" parent="1" vertex="1">
          <mxGeometry x="120" y="270" width="240" height="60" as="geometry" />
        </mxCell>
        <mxCell id="H_OnY3b50F5zeGFzQMEf-4" value="Casa del Organizador" style="rounded=0;whiteSpace=wrap;html=1;" parent="1" vertex="1">
          <mxGeometry x="120" y="370" width="240" height="60" as="geometry" />
        </mxCell>
        <mxCell id="H_OnY3b50F5zeGFzQMEf-5" value="" style="edgeStyle=orthogonalEdgeStyle;rounded=0;orthogonalLoop=1;jettySize=auto;html=1;entryX=0;entryY=0.5;entryDx=0;entryDy=0;" parent="1" target="H_OnY3b50F5zeGFzQMEf-4" edge="1">
          <mxGeometry relative="1" as="geometry">
            <mxPoint x="40" y="300" as="sourcePoint" />
            <mxPoint x="120" y="360" as="targetPoint" />
            <Array as="points">
              <mxPoint x="40" y="400" />
            </Array>
          </mxGeometry>
        </mxCell>
        <mxCell id="H_OnY3b50F5zeGFzQMEf-6" value="Lovic" style="rounded=0;whiteSpace=wrap;html=1;" parent="1" vertex="1">
          <mxGeometry x="120" y="470" width="240" height="60" as="geometry" />
        </mxCell>
        <mxCell id="H_OnY3b50F5zeGFzQMEf-7" value="" style="edgeStyle=orthogonalEdgeStyle;rounded=0;orthogonalLoop=1;jettySize=auto;html=1;entryX=0;entryY=0.5;entryDx=0;entryDy=0;" parent="1" target="H_OnY3b50F5zeGFzQMEf-6" edge="1">
          <mxGeometry relative="1" as="geometry">
            <mxPoint x="40" y="400" as="sourcePoint" />
            <mxPoint x="120" y="460" as="targetPoint" />
            <Array as="points">
              <mxPoint x="40" y="500" />
            </Array>
          </mxGeometry>
        </mxCell>
        <mxCell id="H_OnY3b50F5zeGFzQMEf-8" value="Home" style="rounded=0;whiteSpace=wrap;html=1;" parent="1" vertex="1">
          <mxGeometry x="120" y="570" width="240" height="60" as="geometry" />
        </mxCell>
        <mxCell id="H_OnY3b50F5zeGFzQMEf-9" value="" style="edgeStyle=orthogonalEdgeStyle;rounded=0;orthogonalLoop=1;jettySize=auto;html=1;entryX=0;entryY=0.5;entryDx=0;entryDy=0;" parent="1" target="H_OnY3b50F5zeGFzQMEf-8" edge="1">
          <mxGeometry relative="1" as="geometry">
            <mxPoint x="40" y="500" as="sourcePoint" />
            <mxPoint x="120" y="560" as="targetPoint" />
            <Array as="points">
              <mxPoint x="40" y="600" />
            </Array>
          </mxGeometry>
        </mxCell>
        <mxCell id="H_OnY3b50F5zeGFzQMEf-10" value="Antes y despues" style="rounded=0;whiteSpace=wrap;html=1;" parent="1" vertex="1">
          <mxGeometry x="120" y="670" width="240" height="60" as="geometry" />
        </mxCell>
        <mxCell id="H_OnY3b50F5zeGFzQMEf-11" value="" style="edgeStyle=orthogonalEdgeStyle;rounded=0;orthogonalLoop=1;jettySize=auto;html=1;entryX=0;entryY=0.5;entryDx=0;entryDy=0;" parent="1" target="H_OnY3b50F5zeGFzQMEf-10" edge="1">
          <mxGeometry relative="1" as="geometry">
            <mxPoint x="40" y="600" as="sourcePoint" />
            <mxPoint x="120" y="660" as="targetPoint" />
            <Array as="points">
              <mxPoint x="40" y="700" />
            </Array>
          </mxGeometry>
        </mxCell>
        <mxCell id="H_OnY3b50F5zeGFzQMEf-12" value="Housing" style="rounded=0;whiteSpace=wrap;html=1;" parent="1" vertex="1">
          <mxGeometry x="120" y="770" width="240" height="60" as="geometry" />
        </mxCell>
        <mxCell id="H_OnY3b50F5zeGFzQMEf-13" value="" style="edgeStyle=orthogonalEdgeStyle;rounded=0;orthogonalLoop=1;jettySize=auto;html=1;entryX=0;entryY=0.5;entryDx=0;entryDy=0;" parent="1" target="H_OnY3b50F5zeGFzQMEf-12" edge="1">
          <mxGeometry relative="1" as="geometry">
            <mxPoint x="40" y="700" as="sourcePoint" />
            <mxPoint x="120" y="760" as="targetPoint" />
            <Array as="points">
              <mxPoint x="40" y="800" />
            </Array>
          </mxGeometry>
        </mxCell>
        <mxCell id="H_OnY3b50F5zeGFzQMEf-14" value="Mercadolibre" style="rounded=0;whiteSpace=wrap;html=1;" parent="1" vertex="1">
          <mxGeometry x="120" y="870" width="240" height="60" as="geometry" />
        </mxCell>
        <mxCell id="H_OnY3b50F5zeGFzQMEf-15" value="" style="edgeStyle=orthogonalEdgeStyle;rounded=0;orthogonalLoop=1;jettySize=auto;html=1;entryX=0;entryY=0.5;entryDx=0;entryDy=0;" parent="1" target="H_OnY3b50F5zeGFzQMEf-14" edge="1">
          <mxGeometry relative="1" as="geometry">
            <mxPoint x="40" y="800" as="sourcePoint" />
            <mxPoint x="120" y="860" as="targetPoint" />
            <Array as="points">
              <mxPoint x="40" y="900" />
            </Array>
          </mxGeometry>
        </mxCell>
        <mxCell id="H_OnY3b50F5zeGFzQMEf-17" value="" style="rounded=0;whiteSpace=wrap;html=1;" parent="1" vertex="1">
          <mxGeometry x="40" y="30" width="775" height="110" as="geometry" />
        </mxCell>
        <mxCell id="H_OnY3b50F5zeGFzQMEf-1" value="&lt;h1&gt;Sowi Observatory&lt;/h1&gt;&lt;p&gt;Puede crear atraccion o rechazo entre relaciones basandose en la teoria de identidad.&amp;nbsp;&lt;/p&gt;" style="text;html=1;strokeColor=none;fillColor=none;spacing=5;spacingTop=-20;whiteSpace=wrap;overflow=hidden;rounded=0;" parent="1" vertex="1">
          <mxGeometry x="50" y="34" width="230" height="106" as="geometry" />
        </mxCell>
        <mxCell id="89Xu_PK3RpiEwS9mjWa--4" value="" style="edgeStyle=orthogonalEdgeStyle;rounded=0;orthogonalLoop=1;jettySize=auto;html=1;" edge="1" parent="1" source="H_OnY3b50F5zeGFzQMEf-18" target="89Xu_PK3RpiEwS9mjWa--3">
          <mxGeometry relative="1" as="geometry" />
        </mxCell>
        <mxCell id="H_OnY3b50F5zeGFzQMEf-18" value="Design for Instagram Business" style="rounded=0;whiteSpace=wrap;html=1;" parent="1" vertex="1">
          <mxGeometry x="120" y="173" width="240" height="60" as="geometry" />
        </mxCell>
        <mxCell id="H_OnY3b50F5zeGFzQMEf-19" value="" style="edgeStyle=orthogonalEdgeStyle;rounded=0;orthogonalLoop=1;jettySize=auto;html=1;entryX=0;entryY=0.5;entryDx=0;entryDy=0;" parent="1" target="H_OnY3b50F5zeGFzQMEf-18" edge="1">
          <mxGeometry relative="1" as="geometry">
            <mxPoint x="40" y="140" as="sourcePoint" />
            <mxPoint x="120" y="200" as="targetPoint" />
            <Array as="points">
              <mxPoint x="40" y="203" />
            </Array>
          </mxGeometry>
        </mxCell>
        <mxCell id="H_OnY3b50F5zeGFzQMEf-23" value="" style="edgeStyle=orthogonalEdgeStyle;rounded=0;orthogonalLoop=1;jettySize=auto;html=1;" parent="1" edge="1">
          <mxGeometry relative="1" as="geometry">
            <mxPoint x="40" y="200" as="sourcePoint" />
            <mxPoint x="120" y="300" as="targetPoint" />
            <Array as="points">
              <mxPoint x="40" y="300" />
              <mxPoint x="120" y="300" />
            </Array>
          </mxGeometry>
        </mxCell>
        <mxCell id="89Xu_PK3RpiEwS9mjWa--7" value="" style="edgeStyle=orthogonalEdgeStyle;rounded=0;orthogonalLoop=1;jettySize=auto;html=1;" edge="1" parent="1" source="89Xu_PK3RpiEwS9mjWa--3" target="89Xu_PK3RpiEwS9mjWa--6">
          <mxGeometry relative="1" as="geometry" />
        </mxCell>
        <mxCell id="89Xu_PK3RpiEwS9mjWa--3" value="Instagram" style="rounded=0;whiteSpace=wrap;html=1;" vertex="1" parent="1">
          <mxGeometry x="425" y="173" width="120" height="60" as="geometry" />
        </mxCell>
        <mxCell id="89Xu_PK3RpiEwS9mjWa--6" value="Tiktok" style="rounded=0;whiteSpace=wrap;html=1;" vertex="1" parent="1">
          <mxGeometry x="600" y="173" width="120" height="60" as="geometry" />
        </mxCell>
      </root>
    </mxGraphModel>
  </diagram>
</mxfile>
